<mxfile host="app.diagrams.net" modified="2023-08-19T07:03:21.849Z" agent="Mozilla/5.0 (Windows NT 10.0; Win64; x64) AppleWebKit/537.36 (KHTML, like Gecko) Chrome/115.0.0.0 Safari/537.36 Edg/115.0.1901.203" etag="D7Kvchvlo59jgBKmudFc" version="21.6.8" type="device" pages="2">
  <diagram name="第 1 页" id="bnBBrBjyKiKrXtdo_fpG">
    <mxGraphModel dx="3162" dy="837" grid="1" gridSize="10" guides="1" tooltips="1" connect="1" arrows="1" fold="1" page="1" pageScale="1" pageWidth="827" pageHeight="1169" math="0" shadow="0">
      <root>
        <mxCell id="0" />
        <mxCell id="1" parent="0" />
        <mxCell id="X2yYZzE6FeHQeknsO_Mb-29" value="j" style="text;html=1;align=center;verticalAlign=middle;resizable=0;points=[];autosize=1;strokeColor=none;fillColor=none;" parent="1" vertex="1">
          <mxGeometry x="535" y="448" width="30" height="30" as="geometry" />
        </mxCell>
        <mxCell id="-nZ0tMHnNesN1LKVkgZh-8" value="RealSubject" style="swimlane;fontStyle=1;align=center;verticalAlign=top;childLayout=stackLayout;horizontal=1;startSize=26;horizontalStack=0;resizeParent=1;resizeParentMax=0;resizeLast=0;collapsible=1;marginBottom=0;whiteSpace=wrap;html=1;fillColor=#dae8fc;strokeColor=#6c8ebf;" parent="1" vertex="1">
          <mxGeometry x="-839" y="318" width="190" height="130" as="geometry" />
        </mxCell>
        <mxCell id="-nZ0tMHnNesN1LKVkgZh-9" value="- name: string" style="text;strokeColor=none;fillColor=none;align=left;verticalAlign=top;spacingLeft=4;spacingRight=4;overflow=hidden;rotatable=0;points=[[0,0.5],[1,0.5]];portConstraint=eastwest;whiteSpace=wrap;html=1;" parent="-nZ0tMHnNesN1LKVkgZh-8" vertex="1">
          <mxGeometry y="26" width="190" height="26" as="geometry" />
        </mxCell>
        <mxCell id="-nZ0tMHnNesN1LKVkgZh-10" value="" style="line;strokeWidth=1;fillColor=none;align=left;verticalAlign=middle;spacingTop=-1;spacingLeft=3;spacingRight=3;rotatable=0;labelPosition=right;points=[];portConstraint=eastwest;strokeColor=inherit;" parent="-nZ0tMHnNesN1LKVkgZh-8" vertex="1">
          <mxGeometry y="52" width="190" height="8" as="geometry" />
        </mxCell>
        <mxCell id="-nZ0tMHnNesN1LKVkgZh-11" value="+ method1(Type): Type&lt;br style=&quot;border-color: var(--border-color);&quot;&gt;+ method2(Type, Type): Type" style="text;strokeColor=none;fillColor=none;align=left;verticalAlign=top;spacingLeft=4;spacingRight=4;overflow=hidden;rotatable=0;points=[[0,0.5],[1,0.5]];portConstraint=eastwest;whiteSpace=wrap;html=1;" parent="-nZ0tMHnNesN1LKVkgZh-8" vertex="1">
          <mxGeometry y="60" width="190" height="70" as="geometry" />
        </mxCell>
        <mxCell id="-nZ0tMHnNesN1LKVkgZh-12" value="&lt;p style=&quot;margin:0px;margin-top:4px;text-align:center;&quot;&gt;&lt;i&gt;&amp;lt;&amp;lt;Subject 主题&amp;gt;&amp;gt;&lt;/i&gt;&lt;br&gt;&lt;b&gt;Interface&lt;/b&gt;&lt;/p&gt;&lt;hr size=&quot;1&quot;&gt;&lt;p style=&quot;margin:0px;margin-left:4px;&quot;&gt;+ method1(Type): Type&lt;br&gt;+ method2(Type, Type): Type&lt;/p&gt;" style="verticalAlign=top;align=left;overflow=fill;fontSize=12;fontFamily=Helvetica;html=1;whiteSpace=wrap;" parent="1" vertex="1">
          <mxGeometry x="-840" y="100" width="190" height="100" as="geometry" />
        </mxCell>
        <mxCell id="-nZ0tMHnNesN1LKVkgZh-13" value="" style="endArrow=block;dashed=1;endFill=0;endSize=12;html=1;rounded=0;entryX=0.5;entryY=1;entryDx=0;entryDy=0;" parent="1" source="-nZ0tMHnNesN1LKVkgZh-8" edge="1">
          <mxGeometry width="160" relative="1" as="geometry">
            <mxPoint x="-743.0300000000002" y="313.05999999999995" as="sourcePoint" />
            <mxPoint x="-747" y="200" as="targetPoint" />
          </mxGeometry>
        </mxCell>
        <mxCell id="-nZ0tMHnNesN1LKVkgZh-15" value="ProxyInstance" style="swimlane;fontStyle=1;align=center;verticalAlign=top;childLayout=stackLayout;horizontal=1;startSize=26;horizontalStack=0;resizeParent=1;resizeParentMax=0;resizeLast=0;collapsible=1;marginBottom=0;whiteSpace=wrap;html=1;" parent="1" vertex="1">
          <mxGeometry x="-1170" y="220" width="230" height="52" as="geometry" />
        </mxCell>
        <mxCell id="-nZ0tMHnNesN1LKVkgZh-19" value="Use" style="endArrow=open;endSize=12;dashed=1;html=1;rounded=0;entryX=0;entryY=0.5;entryDx=0;entryDy=0;" parent="-nZ0tMHnNesN1LKVkgZh-15" target="-nZ0tMHnNesN1LKVkgZh-12" edge="1">
          <mxGeometry width="160" relative="1" as="geometry">
            <mxPoint x="110" as="sourcePoint" />
            <mxPoint x="270" as="targetPoint" />
          </mxGeometry>
        </mxCell>
        <mxCell id="-nZ0tMHnNesN1LKVkgZh-18" value="+ createProxy(Subject): Object" style="text;strokeColor=none;fillColor=none;align=left;verticalAlign=top;spacingLeft=4;spacingRight=4;overflow=hidden;rotatable=0;points=[[0,0.5],[1,0.5]];portConstraint=eastwest;whiteSpace=wrap;html=1;" parent="-nZ0tMHnNesN1LKVkgZh-15" vertex="1">
          <mxGeometry y="26" width="230" height="26" as="geometry" />
        </mxCell>
        <mxCell id="-nZ0tMHnNesN1LKVkgZh-21" value="Proxy" style="swimlane;fontStyle=1;align=center;verticalAlign=top;childLayout=stackLayout;horizontal=1;startSize=26;horizontalStack=0;resizeParent=1;resizeParentMax=0;resizeLast=0;collapsible=1;marginBottom=0;whiteSpace=wrap;html=1;fillColor=#dae8fc;strokeColor=#6c8ebf;" parent="1" vertex="1">
          <mxGeometry x="-1135" y="380" width="160" height="52" as="geometry" />
        </mxCell>
        <mxCell id="-nZ0tMHnNesN1LKVkgZh-24" value="+ ProxyInstance(type): type" style="text;strokeColor=none;fillColor=none;align=left;verticalAlign=top;spacingLeft=4;spacingRight=4;overflow=hidden;rotatable=0;points=[[0,0.5],[1,0.5]];portConstraint=eastwest;whiteSpace=wrap;html=1;" parent="-nZ0tMHnNesN1LKVkgZh-21" vertex="1">
          <mxGeometry y="26" width="160" height="26" as="geometry" />
        </mxCell>
        <mxCell id="-nZ0tMHnNesN1LKVkgZh-25" value="Use" style="endArrow=open;endSize=12;dashed=1;html=1;rounded=0;exitX=0.557;exitY=0.923;exitDx=0;exitDy=0;exitPerimeter=0;" parent="1" source="-nZ0tMHnNesN1LKVkgZh-18" edge="1">
          <mxGeometry width="160" relative="1" as="geometry">
            <mxPoint x="-1040" y="280" as="sourcePoint" />
            <mxPoint x="-1040" y="380" as="targetPoint" />
          </mxGeometry>
        </mxCell>
      </root>
    </mxGraphModel>
  </diagram>
  <diagram id="Lec7Kh4PzjNBhFgjuv2r" name="第 2 页">
    <mxGraphModel dx="1508" dy="837" grid="1" gridSize="10" guides="1" tooltips="1" connect="1" arrows="1" fold="1" page="1" pageScale="1" pageWidth="827" pageHeight="1169" math="0" shadow="0">
      <root>
        <mxCell id="0" />
        <mxCell id="1" parent="0" />
      </root>
    </mxGraphModel>
  </diagram>
</mxfile>
